{
  "source": "C:\\Users\\Peter\\Desktop\\stuff\\MIUN\\quantitative_research\\video_compression\\videos\\BVI-HD\\BVI-HD_CDVL_videos\\ORIG\\DiverFishAndRock_1920x1080_30fps.mp4",
  "output": "C:\\Users\\Peter\\Desktop\\stuff\\MIUN\\quantitative_research\\video_compression\\compressed_videos\\BVI-HD\\h264\\2\\DiverFishAndRock_1920x1080_30fps_h264.mp4",
  "codec": "h264",
  "ok": "Input #0, mov,mp4,m4a,3gp,3g2,mj2, from 'C:\\Users\\Peter\\Desktop\\stuff\\MIUN\\quantitative_research\\video_compression\\videos\\BVI-HD\\BVI-HD_CDVL_videos\\ORIG\\DiverFishAndRock_1920x1080_30fps.mp4':\n  Metadata:\n    major_brand     : isom\n    minor_version   : 512\n    compatible_brands: isomiso2avc1mp41\n    encoder         : Lavf54.28.101\n  Duration: 00:00:05.00, start: 0.000000, bitrate: 228854 kb/s\n  Stream #0:0[0x1](und): Video: h264 (High 4:4:4 Predictive) (avc1 / 0x31637661), yuv420p(progressive), 1920x1080, 228851 kb/s, 30 fps, 30 tbr, 30 tbn (default)\n    Metadata:\n      handler_name    : VideoHandler\n      vendor_id       : [0][0][0][0]\n[out#0/mp4 @ 0000026c6fc09980] Codec AVOption b:a (set bitrate (in bits/s)) has not been used for any stream. The most likely reason is either wrong type (e.g. a video option with no video streams) or that it is a private option of some decoder which was not actually used for any stream.\nStream mapping:\n  Stream #0:0 -> #0:0 (h264 (native) -> h264 (libx264))\nPress [q] to stop, [?] for help\n[libx264 @ 0000026c704ab840] using cpu capabilities: MMX2 SSE2Fast SSSE3 SSE4.2 AVX FMA3 BMI2 AVX2\n[libx264 @ 0000026c704ab840] profile High, level 5.0, 4:2:0, 8-bit\n[libx264 @ 0000026c704ab840] 264 - core 165 r3222 b35605a - H.264/MPEG-4 AVC codec - Copyleft 2003-2025 - http://www.videolan.org/x264.html - options: cabac=1 ref=5 deblock=1:0:0 analyse=0x3:0x113 me=hex subme=8 psy=1 psy_rd=1.00:0.00 mixed_ref=1 me_range=16 chroma_me=1 trellis=2 8x8dct=1 cqm=0 deadzone=21,11 fast_pskip=1 chroma_qp_offset=-2 threads=18 lookahead_threads=3 sliced_threads=0 nr=0 decimate=1 interlaced=0 bluray_compat=0 constrained_intra=0 bframes=3 b_pyramid=2 b_adapt=1 b_bias=0 direct=3 weightb=1 open_gop=0 weightp=2 keyint=250 keyint_min=25 scenecut=40 intra_refresh=0 rc_lookahead=50 rc=cbr mbtree=1 bitrate=2000 ratetol=1.0 qcomp=0.60 qpmin=0 qpmax=69 qpstep=4 vbv_maxrate=2000 vbv_bufsize=2000 nal_hrd=none filler=0 ip_ratio=1.40 aq=1:1.00\nOutput #0, mp4, to 'C:\\Users\\Peter\\Desktop\\stuff\\MIUN\\quantitative_research\\video_compression\\compressed_videos\\BVI-HD\\h264\\2\\DiverFishAndRock_1920x1080_30fps_h264.mp4':\n  Metadata:\n    major_brand     : isom\n    minor_version   : 512\n    compatible_brands: isomiso2avc1mp41\n    encoder         : Lavf62.3.100\n  Stream #0:0(und): Video: h264 (avc1 / 0x31637661), yuv420p(tv, progressive), 1920x1080, q=2-31, 2000 kb/s, 30 fps, 15360 tbn (default)\n    Metadata:\n      encoder         : Lavc62.11.100 libx264\n      handler_name    : VideoHandler\n      vendor_id       : [0][0][0][0]\n    Side data:\n      cpb: bitrate max/min/avg: 2000000/0/2000000 buffer size: 2000000 vbv_delay: N/A\nframe=    0 fps=0.0 q=0.0 size=       0KiB time=N/A bitrate=N/A speed=N/A elapsed=0:00:00.52    \nframe=    0 fps=0.0 q=0.0 size=       0KiB time=N/A bitrate=N/A speed=N/A elapsed=0:00:01.10    \nframe=    0 fps=0.0 q=0.0 size=       0KiB time=N/A bitrate=N/A speed=N/A elapsed=0:00:01.67    \nframe=   12 fps=5.3 q=39.0 size=       0KiB time=00:00:00.33 bitrate=   1.2kbits/s speed=0.146x elapsed=0:00:02.28    \nframe=   36 fps= 13 q=38.0 size=       0KiB time=00:00:01.13 bitrate=   0.3kbits/s speed=0.396x elapsed=0:00:02.86    \nframe=   64 fps= 19 q=38.0 size=     256KiB time=00:00:02.06 bitrate=1014.9kbits/s speed=0.601x elapsed=0:00:03.44    \nframe=   89 fps= 22 q=38.0 size=     512KiB time=00:00:02.90 bitrate=1446.4kbits/s speed=0.723x elapsed=0:00:04.01    \nframe=  121 fps= 27 q=36.0 size=     768KiB time=00:00:03.96 bitrate=1586.2kbits/s speed=0.872x elapsed=0:00:04.54    \n[mp4 @ 0000026c6fc09a80] Starting second pass: moving the moov atom to the beginning of the file\n[out#0/mp4 @ 0000026c6fc09980] video:1046KiB audio:0KiB subtitle:0KiB other streams:0KiB global headers:0KiB muxing overhead: 0.249707%\nframe=  150 fps= 30 q=-1.0 Lsize=    1049KiB time=00:00:04.93 bitrate=1741.5kbits/s speed=0.984x elapsed=0:00:05.01    \n[libx264 @ 0000026c704ab840] frame I:1     Avg QP:34.03  size: 32667\n[libx264 @ 0000026c704ab840] frame P:38    Avg QP:35.86  size: 14165\n[libx264 @ 0000026c704ab840] frame B:111   Avg QP:40.21  size:  4501\n[libx264 @ 0000026c704ab840] consecutive B-frames:  1.3%  0.0%  0.0% 98.7%\n[libx264 @ 0000026c704ab840] mb I  I16..4: 48.5% 48.8%  2.7%\n[libx264 @ 0000026c704ab840] mb P  I16..4:  2.9%  6.9%  0.2%  P16..4: 36.9%  4.0%  2.2%  0.0%  0.0%    skip:46.8%\n[libx264 @ 0000026c704ab840] mb B  I16..4:  0.2%  0.4%  0.0%  B16..8: 31.6%  1.4%  0.1%  direct: 0.5%  skip:65.7%  L0:37.2% L1:62.0% BI: 0.8%\n[libx264 @ 0000026c704ab840] 8x8 transform intra:65.8% inter:85.5%\n[libx264 @ 0000026c704ab840] direct mvs  spatial:91.0% temporal:9.0%\n[libx264 @ 0000026c704ab840] coded y,uvDC,uvAC intra: 32.1% 36.9% 5.2% inter: 3.0% 3.2% 0.0%\n[libx264 @ 0000026c704ab840] i16 v,h,dc,p: 15% 41%  9% 35%\n[libx264 @ 0000026c704ab840] i8 v,h,dc,ddl,ddr,vr,hd,vl,hu:  8%  7% 15%  8% 15% 12% 15%  8% 12%\n[libx264 @ 0000026c704ab840] i4 v,h,dc,ddl,ddr,vr,hd,vl,hu:  7%  7% 12%  8% 16% 11% 14%  8% 16%\n[libx264 @ 0000026c704ab840] i8c dc,h,v,p: 53% 29% 11%  7%\n[libx264 @ 0000026c704ab840] Weighted P-Frames: Y:13.2% UV:0.0%\n[libx264 @ 0000026c704ab840] ref P L0: 50.8% 20.6% 17.1%  5.3%  5.5%  0.6%\n[libx264 @ 0000026c704ab840] ref B L0: 88.1%  8.5%  2.7%  0.7%\n[libx264 @ 0000026c704ab840] ref B L1: 96.3%  3.7%\n[libx264 @ 0000026c704ab840] kb/s:1712.79\n",
  "seconds": 5.499353408813477,
  "probe_out": {}
}